<svg width="49" height="49" viewBox="0 0 49 49" fill="none" xmlns="http://www.w3.org/2000/svg">
<path d="M19.5 2H34C36.8003 2 38.2004 2 39.27 2.54497C40.2108 3.02433 40.9757 3.78924 41.455 4.73005C42 5.79961 42 7.19974 42 10V17M42 17L37 12M42 17L47 12M9.5 9.5H17M9.5 17H17C19.3297 17 20.4946 17 21.4134 16.6194C22.6386 16.1119 23.6119 15.1386 24.1194 13.9134C24.5 12.9946 24.5 11.8297 24.5 9.5C24.5 7.17029 24.5 6.00544 24.1194 5.08658C23.6119 3.86144 22.6386 2.88807 21.4134 2.3806C20.4946 2 19.3297 2 17 2H9.5C7.17029 2 6.00544 2 5.08658 2.3806C3.86144 2.88807 2.88807 3.86144 2.3806 5.08658C2 6.00544 2 7.17029 2 9.5C2 11.8297 2 12.9946 2.3806 13.9134C2.88807 15.1386 3.86144 16.1119 5.08658 16.6194C6.00544 17 7.17029 17 9.5 17ZM9.5 47H39.5C41.8297 47 42.9946 47 43.9134 46.6194C45.1386 46.1119 46.1119 45.1386 46.6194 43.9134C47 42.9946 47 41.8297 47 39.5C47 37.1703 47 36.0054 46.6194 35.0866C46.1119 33.8614 45.1386 32.8881 43.9134 32.3806C42.9946 32 41.8297 32 39.5 32H9.5C7.17029 32 6.00544 32 5.08658 32.3806C3.86144 32.8881 2.88807 33.8614 2.3806 35.0866C2 36.0054 2 37.1703 2 39.5C2 41.8297 2 42.9946 2.3806 43.9134C2.88807 45.1386 3.86144 46.1119 5.08658 46.6194C6.00544 47 7.17029 47 9.5 47Z" stroke="#D5AF9B" stroke-width="4" stroke-linecap="round" stroke-linejoin="round"/>
</svg>
