<svg width="80" height="80" viewBox="0 0 80 80" fill="none" xmlns="http://www.w3.org/2000/svg">
<rect width="80" height="80" rx="15" fill="#D5AF9B"/>
<path d="M17.5 61.5C16.3954 61.5 15.5 62.3954 15.5 63.5C15.5 64.6046 16.3954 65.5 17.5 65.5V63.5V61.5ZM62.5 65.5C63.6046 65.5 64.5 64.6046 64.5 63.5C64.5 62.3954 63.6046 61.5 62.5 61.5V63.5V65.5ZM17.5 16.5C16.3954 16.5 15.5 17.3954 15.5 18.5C15.5 19.6046 16.3954 20.5 17.5 20.5V18.5V16.5ZM62.5 20.5C63.6046 20.5 64.5 19.6046 64.5 18.5C64.5 17.3954 63.6046 16.5 62.5 16.5V18.5V20.5ZM30 51L28.4 49.8C27.9455 50.406 27.8724 51.2168 28.2111 51.8944C28.5499 52.572 29.2424 53 30 53L30 51ZM50 51L50 53C50.7576 52.9999 51.4501 52.5719 51.7889 51.8944C52.1276 51.2168 52.0545 50.406 51.6 49.7999L50 51ZM35 51H37C37 49.8954 36.1046 49 35 49L35 51ZM45 51L45 49C43.8954 49 43 49.8954 43 51H45ZM32.5 25.25C31.3954 25.25 30.5 26.1454 30.5 27.25C30.5 28.3546 31.3954 29.25 32.5 29.25V27.25V25.25ZM35 29.25C36.1046 29.25 37 28.3546 37 27.25C37 26.1454 36.1046 25.25 35 25.25V27.25V29.25ZM45 25.25C43.8954 25.25 43 26.1454 43 27.25C43 28.3546 43.8954 29.25 45 29.25V27.25V25.25ZM47.5 29.25C48.6046 29.25 49.5 28.3546 49.5 27.25C49.5 26.1454 48.6046 25.25 47.5 25.25V27.25V29.25ZM32.5 35.25C31.3954 35.25 30.5 36.1454 30.5 37.25C30.5 38.3546 31.3954 39.25 32.5 39.25V37.25V35.25ZM35 39.25C36.1046 39.25 37 38.3546 37 37.25C37 36.1454 36.1046 35.25 35 35.25V37.25V39.25ZM45 35.25C43.8954 35.25 43 36.1454 43 37.25C43 38.3546 43.8954 39.25 45 39.25V37.25V35.25ZM47.5 39.25C48.6046 39.25 49.5 38.3546 49.5 37.25C49.5 36.1454 48.6046 35.25 47.5 35.25V37.25V39.25ZM17.5 63.5V65.5H22.5V63.5V61.5H17.5V63.5ZM22.5 63.5V65.5H35V63.5V61.5H22.5V63.5ZM35 63.5V65.5H45V63.5V61.5H35V63.5ZM45 63.5V65.5H57.5V63.5V61.5H45V63.5ZM57.5 63.5V65.5H62.5V63.5V61.5H57.5V63.5ZM17.5 18.5V20.5H22.5V18.5V16.5H17.5V18.5ZM22.5 18.5V20.5H57.5V18.5V16.5H22.5V18.5ZM57.5 18.5V20.5H62.5V18.5V16.5H57.5V18.5ZM30 51L31.6 52.2C35.8 46.6 44.2 46.6 48.4 52.2L50 51L51.6 49.7999C45.8 42.0666 34.2 42.0667 28.4 49.8L30 51ZM22.5 18.5H20.5V63.5H22.5H24.5V18.5H22.5ZM57.5 18.5H55.5V63.5H57.5H59.5V18.5H57.5ZM30 51L30 53L35 53L35 51L35 49L30 49L30 51ZM35 51H33V63.5H35H37V51H35ZM50 51L50 49L45 49L45 51L45 53L50 53L50 51ZM45 51H43V63.5H45H47V51H45ZM32.5 27.25V29.25H35V27.25V25.25H32.5V27.25ZM45 27.25V29.25H47.5V27.25V25.25H45V27.25ZM32.5 37.25V39.25H35V37.25V35.25H32.5V37.25ZM45 37.25V39.25H47.5V37.25V35.25H45V37.25Z" fill="white"/>
</svg>
