<svg width="80" height="80" viewBox="0 0 80 80" fill="none" xmlns="http://www.w3.org/2000/svg">
<rect width="80" height="80" rx="15" fill="#D5AF9B"/>
<path d="M17.5 62.5H15.5C15.5 63.6046 16.3954 64.5 17.5 64.5V62.5ZM62.5 62.5V64.5C63.6046 64.5 64.5 63.6046 64.5 62.5H62.5ZM25 25.5C23.8954 25.5 23 26.3954 23 27.5C23 28.6046 23.8954 29.5 25 29.5V27.5V25.5ZM27.5 29.5C28.6046 29.5 29.5 28.6046 29.5 27.5C29.5 26.3954 28.6046 25.5 27.5 25.5V27.5V29.5ZM37.5 25.5C36.3954 25.5 35.5 26.3954 35.5 27.5C35.5 28.6046 36.3954 29.5 37.5 29.5V27.5V25.5ZM40 29.5C41.1046 29.5 42 28.6046 42 27.5C42 26.3954 41.1046 25.5 40 25.5V27.5V29.5ZM25 33C23.8954 33 23 33.8954 23 35C23 36.1046 23.8954 37 25 37V35V33ZM27.5 37C28.6046 37 29.5 36.1046 29.5 35C29.5 33.8954 28.6046 33 27.5 33V35V37ZM37.5 33C36.3954 33 35.5 33.8954 35.5 35C35.5 36.1046 36.3954 37 37.5 37V35V33ZM40 37C41.1046 37 42 36.1046 42 35C42 33.8954 41.1046 33 40 33V35V37ZM25 40.5C23.8954 40.5 23 41.3954 23 42.5C23 43.6046 23.8954 44.5 25 44.5V42.5V40.5ZM27.5 44.5C28.6046 44.5 29.5 43.6046 29.5 42.5C29.5 41.3954 28.6046 40.5 27.5 40.5V42.5V44.5ZM37.5 40.5C36.3954 40.5 35.5 41.3954 35.5 42.5C35.5 43.6046 36.3954 44.5 37.5 44.5V42.5V40.5ZM40 44.5C41.1046 44.5 42 43.6046 42 42.5C42 41.3954 41.1046 40.5 40 40.5V42.5V44.5ZM37.5 62.5V64.5H39.5V62.5H37.5ZM27.5 62.5H25.5V64.5H27.5V62.5ZM55 35.5C53.8954 35.5 53 36.3954 53 37.5C53 38.6046 53.8954 39.5 55 39.5V37.5V35.5ZM55.025 39.5C56.1296 39.5 57.025 38.6046 57.025 37.5C57.025 36.3954 56.1296 35.5 55.025 35.5V37.5V39.5ZM55 43C53.8954 43 53 43.8954 53 45C53 46.1046 53.8954 47 55 47V45V43ZM55.025 47C56.1296 47 57.025 46.1046 57.025 45C57.025 43.8954 56.1296 43 55.025 43V45V47ZM55 50.5C53.8954 50.5 53 51.3954 53 52.5C53 53.6046 53.8954 54.5 55 54.5V52.5V50.5ZM55.025 54.5C56.1296 54.5 57.025 53.6046 57.025 52.5C57.025 51.3954 56.1296 50.5 55.025 50.5V52.5V54.5ZM62.2275 28.865L60.4455 29.773L62.2275 28.865ZM61.135 27.7725L60.227 29.5545L61.135 27.7725ZM46.135 17.7725L45.227 19.5545L46.135 17.7725ZM47.2275 18.865L45.4455 19.773L47.2275 18.865ZM17.7725 18.865L19.5545 19.773L17.7725 18.865ZM18.865 17.7725L19.773 19.5545L18.865 17.7725ZM17.5 21.5H15.5V62.5H17.5H19.5V21.5H17.5ZM21.5 17.5V19.5H43.5V17.5V15.5H21.5V17.5ZM47.5 21.5H45.5V27.5H47.5H49.5V21.5H47.5ZM47.5 27.5H45.5V62.5H47.5H49.5V27.5H47.5ZM17.5 62.5V64.5H47.5V62.5V60.5H17.5V62.5ZM47.5 62.5V64.5H62.5V62.5V60.5H47.5V62.5ZM62.5 31.5H60.5V62.5H62.5H64.5V31.5H62.5ZM47.5 27.5V29.5H58.5V27.5V25.5H47.5V27.5ZM25 27.5V29.5H27.5V27.5V25.5H25V27.5ZM37.5 27.5V29.5H40V27.5V25.5H37.5V27.5ZM25 35V37H27.5V35V33H25V35ZM37.5 35V37H40V35V33H37.5V35ZM25 42.5V44.5H27.5V42.5V40.5H25V42.5ZM37.5 42.5V44.5H40V42.5V40.5H37.5V42.5ZM37.5 55H35.5V62.5H37.5H39.5V55H37.5ZM37.5 62.5V60.5H27.5V62.5V64.5H37.5V62.5ZM27.5 62.5H29.5V55H27.5H25.5V62.5H27.5ZM32.5 50V52C34.1569 52 35.5 53.3431 35.5 55H37.5H39.5C39.5 51.134 36.366 48 32.5 48V50ZM32.5 50V48C28.634 48 25.5 51.134 25.5 55H27.5H29.5C29.5 53.3431 30.8431 52 32.5 52V50ZM55 37.5V39.5H55.025V37.5V35.5H55V37.5ZM55 45V47H55.025V45V43H55V45ZM55 52.5V54.5H55.025V52.5V50.5H55V52.5ZM62.5 31.5H64.5C64.5 30.8329 64.5016 30.2124 64.4593 29.6951C64.4151 29.1546 64.3134 28.5534 64.0095 27.957L62.2275 28.865L60.4455 29.773C60.4141 29.7115 60.4486 29.7277 60.4726 30.0209C60.4984 30.3374 60.5 30.7669 60.5 31.5H62.5ZM58.5 27.5V29.5C59.2331 29.5 59.6626 29.5016 59.9791 29.5274C60.2723 29.5514 60.2885 29.5859 60.227 29.5545L61.135 27.7725L62.043 25.9905C61.4466 25.6866 60.8454 25.5849 60.3049 25.5407C59.7876 25.4984 59.1671 25.5 58.5 25.5V27.5ZM62.2275 28.865L64.0095 27.957C63.5781 27.1103 62.8897 26.4219 62.043 25.9905L61.135 27.7725L60.227 29.5545C60.3211 29.6024 60.3976 29.6789 60.4455 29.773L62.2275 28.865ZM43.5 17.5V19.5C44.2331 19.5 44.6626 19.5016 44.9791 19.5274C45.2723 19.5514 45.2885 19.5859 45.227 19.5545L46.135 17.7725L47.043 15.9905C46.4466 15.6866 45.8454 15.5849 45.3049 15.5407C44.7876 15.4984 44.1671 15.5 43.5 15.5V17.5ZM47.5 21.5H49.5C49.5 20.8329 49.5016 20.2124 49.4593 19.6951C49.4151 19.1546 49.3134 18.5534 49.0095 17.957L47.2275 18.865L45.4455 19.773C45.4141 19.7115 45.4486 19.7277 45.4726 20.0209C45.4984 20.3374 45.5 20.7669 45.5 21.5H47.5ZM46.135 17.7725L45.227 19.5545C45.3211 19.6024 45.3976 19.6789 45.4455 19.773L47.2275 18.865L49.0095 17.957C48.5781 17.1103 47.8897 16.4219 47.043 15.9905L46.135 17.7725ZM17.5 21.5H19.5C19.5 20.7669 19.5016 20.3374 19.5274 20.0209C19.5514 19.7277 19.5859 19.7115 19.5545 19.773L17.7725 18.865L15.9905 17.957C15.6866 18.5534 15.5849 19.1546 15.5407 19.6951C15.4984 20.2124 15.5 20.8329 15.5 21.5H17.5ZM21.5 17.5V15.5C20.8329 15.5 20.2124 15.4984 19.6951 15.5407C19.1546 15.5849 18.5534 15.6866 17.957 15.9905L18.865 17.7725L19.773 19.5545C19.7115 19.5859 19.7277 19.5514 20.0209 19.5274C20.3374 19.5016 20.7669 19.5 21.5 19.5V17.5ZM17.7725 18.865L19.5545 19.773C19.6024 19.6789 19.6789 19.6024 19.773 19.5545L18.865 17.7725L17.957 15.9905C17.1103 16.4219 16.4219 17.1103 15.9905 17.957L17.7725 18.865Z" fill="white"/>
</svg>
