<svg width="80" height="80" viewBox="0 0 80 80" fill="none" xmlns="http://www.w3.org/2000/svg">
<rect width="80" height="80" rx="15" fill="#D5AF9B"/>
<path d="M36.25 62.5H54.5C57.3003 62.5 58.7004 62.5 59.77 61.955C60.7108 61.4757 61.4757 60.7108 61.955 59.77C62.5 58.7004 62.5 57.3003 62.5 54.5V25.5C62.5 22.6997 62.5 21.2996 61.955 20.23C61.4757 19.2892 60.7108 18.5243 59.77 18.045C58.7004 17.5 57.3003 17.5 54.5 17.5H45C42.6703 17.5 41.5054 17.5 40.5866 17.8806C39.3614 18.3881 38.3881 19.3614 37.8806 20.5866C37.5 21.5054 37.5 22.6703 37.5 25M17.5 55H40M52.5 40H62.5M52.5 30H62.5M30 35V45M25 40H35M25.5 25H34.5C37.3003 25 38.7004 25 39.77 25.545C40.7108 26.0243 41.4757 26.7892 41.955 27.73C42.5 28.7996 42.5 30.1997 42.5 33V54.5C42.5 57.3003 42.5 58.7004 41.955 59.77C41.4757 60.7108 40.7108 61.4757 39.77 61.955C38.7004 62.5 37.3003 62.5 34.5 62.5H25.5C22.6997 62.5 21.2996 62.5 20.23 61.955C19.2892 61.4757 18.5243 60.7108 18.045 59.77C17.5 58.7004 17.5 57.3003 17.5 54.5V33C17.5 30.1997 17.5 28.7996 18.045 27.73C18.5243 26.7892 19.2892 26.0243 20.23 25.545C21.2996 25 22.6997 25 25.5 25Z" stroke="white" stroke-width="4" stroke-linecap="round" stroke-linejoin="round"/>
</svg>
