<svg width="80" height="80" viewBox="0 0 80 80" fill="none" xmlns="http://www.w3.org/2000/svg">
<rect width="80" height="80" rx="15" fill="#D5AF9B"/>
<path d="M30 15.5V16.5417M18.5417 28H17.5M21.6667 19.6667L20.625 18.625M38.3333 19.6667L39.375 18.625M21.6667 36.3333L20.625 37.375M34.3311 25.5C33.4666 24.0055 31.8507 23 30 23C27.2386 23 25 25.2386 25 28C25 29.8507 26.0055 31.4666 27.5 32.3311M25 45.5L41.0207 30.5473C41.9823 29.6499 42.463 29.2012 43.0103 29.0316C43.4921 28.8824 44.0079 28.8824 44.4897 29.0316C45.037 29.2012 45.5177 29.6499 46.4793 30.5473L62.5 45.5M30 40.8333V56.5C30 57.9001 30 58.6002 30.2725 59.135C30.5122 59.6054 30.8946 59.9878 31.365 60.2275C31.8998 60.5 32.5999 60.5 34 60.5H53.5C54.9001 60.5 55.6002 60.5 56.135 60.2275C56.6054 59.9878 56.9878 59.6054 57.2275 59.135C57.5 58.6002 57.5 57.9001 57.5 56.5V40.8333" stroke="white" stroke-width="4" stroke-linecap="round" stroke-linejoin="round"/>
</svg>
