<svg width="80" height="80" viewBox="0 0 80 80" fill="none" xmlns="http://www.w3.org/2000/svg">
<rect width="80" height="80" rx="15" fill="#D5AF9B"/>
<path d="M47.5 45V54C47.5 56.1002 47.5 57.1503 47.0913 57.9525C46.7318 58.6581 46.1581 59.2317 45.4525 59.5913C44.6503 60 43.6002 60 41.5 60H28.5C26.3998 60 25.3497 60 24.5475 59.5913C23.8419 59.2317 23.2683 58.6581 22.9087 57.9525C22.5 57.1503 22.5 56.1002 22.5 54V35M57.5 35V60M22.5 50H47.5M23.8944 22.2111L18.9472 32.1056C18.468 33.064 18.2284 33.5432 18.286 33.9327C18.3362 34.2728 18.5244 34.5773 18.8061 34.7743C19.1288 35 19.6645 35 20.7361 35H59.2639C60.3355 35 60.8712 35 61.1939 34.7743C61.4756 34.5773 61.6638 34.2728 61.714 33.9327C61.7716 33.5432 61.532 33.064 61.0528 32.1056L56.1056 22.2111C55.7043 21.4085 55.5036 21.0072 55.2042 20.714C54.9395 20.4547 54.6204 20.2575 54.2701 20.1366C53.874 20 53.4253 20 52.5279 20H27.4721C26.5747 20 26.126 20 25.7299 20.1366C25.3796 20.2575 25.0605 20.4547 24.7958 20.714C24.4964 21.0072 24.2958 21.4085 23.8944 22.2111Z" stroke="white" stroke-width="4" stroke-linecap="round" stroke-linejoin="round"/>
</svg>
