<svg width="55" height="59" viewBox="0 0 55 59" fill="none" xmlns="http://www.w3.org/2000/svg">
<g filter="url(#filter0_d_616_512)">
<path d="M44.0246 33.986L47.1897 39.5555C46.8136 40.2907 46.3934 41.0127 45.9282 41.7182C45.463 42.4237 44.965 43.0944 44.4374 43.7297L38.2114 43.0355C36.546 44.4021 34.6239 45.4674 32.5283 46.148L29.6177 51.8626C28.7969 51.9533 27.9627 51.9999 27.1177 51.9999C26.2727 51.9999 25.4386 51.9533 24.6177 51.8626L21.6995 46.1455C19.6029 45.4635 17.68 44.3964 16.0144 43.0276L9.75237 43.7288C9.22477 43.0935 8.7267 42.4227 8.26154 41.7173C7.79638 41.0118 7.37609 40.2898 7 39.5545L10.1831 33.9534C9.81226 32.5355 9.61771 31.0346 9.61771 29.5004C9.61771 27.9372 9.82266 26.4219 10.2072 24.9799L7.00095 19.34C7.37705 18.6048 7.79733 17.8828 8.26249 17.1773C8.72766 16.4718 9.22572 15.8011 9.75332 15.1657L16.1407 15.8832C17.7866 14.5519 19.6578 13.5171 21.7172 12.8496M21.7075 12.8499L24.6171 7.13732C25.438 7.04658 26.2721 7 27.1171 7C27.9621 7 28.7963 7.04658 29.6171 7.13732L32.5267 12.8499C34.5877 13.5179 36.4643 14.5441 38.1111 15.8769L44.4358 15.1665C44.9634 15.8019 45.4615 16.4726 45.9266 17.1781C46.3918 17.8835 46.8121 18.6056 47.1882 19.3408L44.0151 24.9242M44.0157 24.9329C44.4083 26.389 44.6177 27.9203 44.6177 29.5004C44.6177 31.0537 44.4153 32.5598 44.0355 33.9936M34.6177 29.5004C34.6177 33.6425 31.2598 37.0004 27.1177 37.0004C22.9756 37.0004 19.6177 33.6425 19.6177 29.5004C19.6177 25.3582 22.9756 22.0004 27.1177 22.0004C31.2598 22.0004 34.6177 25.3582 34.6177 29.5004Z" stroke="#D5AF9B" stroke-width="4" stroke-linecap="round" stroke-linejoin="round" shape-rendering="crispEdges"/>
</g>
<defs>
<filter id="filter0_d_616_512" x="0" y="0" width="54.1898" height="59" filterUnits="userSpaceOnUse" color-interpolation-filters="sRGB">
<feFlood flood-opacity="0" result="BackgroundImageFix"/>
<feColorMatrix in="SourceAlpha" type="matrix" values="0 0 0 0 0 0 0 0 0 0 0 0 0 0 0 0 0 0 127 0" result="hardAlpha"/>
<feOffset/>
<feGaussianBlur stdDeviation="2.5"/>
<feComposite in2="hardAlpha" operator="out"/>
<feColorMatrix type="matrix" values="0 0 0 0 0.835294 0 0 0 0 0.686275 0 0 0 0 0.607843 0 0 0 0.5 0"/>
<feBlend mode="normal" in2="BackgroundImageFix" result="effect1_dropShadow_616_512"/>
<feBlend mode="normal" in="SourceGraphic" in2="effect1_dropShadow_616_512" result="shape"/>
</filter>
</defs>
</svg>
