<svg width="172" height="58" viewBox="0 0 172 58" fill="none" xmlns="http://www.w3.org/2000/svg">
<path d="M163.671 5.29808C165.211 5.29808 166.545 5.55481 167.671 6.06826C168.814 6.58172 169.692 7.31049 170.304 8.25459C170.917 9.19868 171.224 10.3167 171.224 11.6086C171.224 12.884 170.917 14.002 170.304 14.9626C169.692 15.9067 168.814 16.6355 167.671 17.1489C166.545 17.6458 165.211 17.8943 163.671 17.8943H160.168V22.6893H156.143V5.29808H163.671ZM163.447 14.6148C164.656 14.6148 165.576 14.3581 166.205 13.8446C166.835 13.3146 167.149 12.5693 167.149 11.6086C167.149 10.6314 166.835 9.88605 166.205 9.37259C165.576 8.84258 164.656 8.57757 163.447 8.57757H160.168V14.6148H163.447Z" fill="#635045"/>
<path d="M152.892 19.4595V22.6893H139.426V5.29808H152.569V8.52788H143.426V12.3043H151.501V15.4347H143.426V19.4595H152.892Z" fill="#635045"/>
<path d="M136.899 8.57757H131.334V22.6893H127.359V8.57757H121.818V5.29808H136.899V8.57757Z" fill="#635045"/>
<path d="M113.974 22.9875C112.202 22.9875 110.595 22.6065 109.154 21.8446C107.73 21.0661 106.603 19.9978 105.775 18.6397C104.964 17.2649 104.558 15.7163 104.558 13.9937C104.558 12.2712 104.964 10.7308 105.775 9.37262C106.603 7.99789 107.73 6.92957 109.154 6.16767C110.595 5.38921 112.21 4.99998 113.999 4.99998C115.506 4.99998 116.864 5.26499 118.073 5.795C119.299 6.32502 120.326 7.08692 121.154 8.08071L118.57 10.4658C117.394 9.10761 115.937 8.42853 114.197 8.42853C113.121 8.42853 112.16 8.66869 111.315 9.14902C110.471 9.61279 109.808 10.267 109.328 11.1117C108.864 11.9565 108.632 12.9171 108.632 13.9937C108.632 15.0703 108.864 16.031 109.328 16.8757C109.808 17.7204 110.471 18.3829 111.315 18.8633C112.16 19.327 113.121 19.5589 114.197 19.5589C115.937 19.5589 117.394 18.8715 118.57 17.4968L121.154 19.8819C120.326 20.8922 119.299 21.6624 118.073 22.1924C116.848 22.7225 115.481 22.9875 113.974 22.9875Z" fill="#635045"/>
<path d="M97.9227 18.9626H89.8482L88.3079 22.6893H84.1837L91.9352 5.29808H95.9103L103.687 22.6893H99.4631L97.9227 18.9626ZM96.6557 15.9067L93.8979 9.24837L91.1402 15.9067H96.6557Z" fill="#635045"/>
<path d="M78.0498 22.6893L78.0249 12.2794L72.9069 20.8508H71.1181L66.0001 12.4782V22.6893H62.2238V5.29808H65.5529L72.0622 16.1055L78.4721 5.29808H81.8013L81.8262 22.6893H78.0498Z" fill="#635045"/>
<path d="M164.381 43.5087H156.306L154.766 47.2354H150.642L158.393 29.8442H162.368L170.145 47.2354H165.921L164.381 43.5087ZM163.114 40.4528L160.356 33.7945L157.598 40.4528H163.114Z" fill="#635045"/>
<path d="M141.966 40.2292H139.183V47.2354H135.183V29.8442H139.183V36.8752H142.065L146.636 29.8442H150.885L145.195 38.2417L151.059 47.2354H146.487L141.966 40.2292Z" fill="#635045"/>
<path d="M125.025 29.8442C126.565 29.8442 127.899 30.1009 129.025 30.6144C130.168 31.1278 131.046 31.8566 131.658 32.8007C132.271 33.7448 132.578 34.8628 132.578 36.1547C132.578 37.4301 132.271 38.5481 131.658 39.5087C131.046 40.4528 130.168 41.1816 129.025 41.6951C127.899 42.192 126.565 42.4404 125.025 42.4404H121.522V47.2354H117.497V29.8442H125.025ZM124.801 39.1609C126.01 39.1609 126.93 38.9042 127.559 38.3907C128.188 37.8607 128.503 37.1154 128.503 36.1547C128.503 35.1775 128.188 34.4322 127.559 33.9187C126.93 33.3887 126.01 33.1237 124.801 33.1237H121.522V39.1609H124.801Z" fill="#635045"/>
<path d="M97.0924 29.8442H101.092V41.1733L109.39 29.8442H113.167V47.2354H109.192V35.9311L100.894 47.2354H97.0924V29.8442Z" fill="#635045"/>
<path d="M94.5652 33.1237H89V47.2354H85.0249V33.1237H79.4845V29.8442H94.5652V33.1237Z" fill="#635045"/>
<path d="M71.6399 47.5336C69.8676 47.5336 68.261 47.1526 66.82 46.3907C65.3956 45.6123 64.2693 44.5439 63.4412 43.1858C62.6296 41.811 62.2238 40.2624 62.2238 38.5398C62.2238 36.8173 62.6296 35.2769 63.4412 33.9187C64.2693 32.544 65.3956 31.4757 66.82 30.7138C68.261 29.9353 69.8759 29.5461 71.6647 29.5461C73.172 29.5461 74.5301 29.8111 75.7392 30.3411C76.9649 30.8711 77.9918 31.633 78.82 32.6268L76.2361 35.0119C75.0601 33.6537 73.6026 32.9746 71.8635 32.9746C70.7869 32.9746 69.8262 33.2148 68.9815 33.6951C68.1368 34.1589 67.4743 34.8131 66.9939 35.6579C66.5302 36.5026 66.2983 37.4632 66.2983 38.5398C66.2983 39.6164 66.5302 40.5771 66.9939 41.4218C67.4743 42.2665 68.1368 42.929 68.9815 43.4094C69.8262 43.8731 70.7869 44.105 71.8635 44.105C73.6026 44.105 75.0601 43.4176 76.2361 42.0429L78.82 44.428C77.9918 45.4383 76.9649 46.2085 75.7392 46.7385C74.5136 47.2686 73.1471 47.5336 71.6399 47.5336Z" fill="#635045"/>
<path d="M39.9053 3.82346C42.9149 3.82346 45.3552 6.26312 45.3555 9.27267V51.6311L39.9932 45.4865C38.8504 46.0141 35.8448 48.2647 32.9619 53.0461C29.3653 59.0112 17.6264 55.5212 14.3467 54.5461L14.3271 54.5403C11.0749 53.5729 3.95626 44.3443 3.95605 38.4553C3.95605 33.7442 6.41685 26.1208 7.64746 22.8977L0.0878906 19.3811C0.0581446 19.4208 0.0293689 19.4616 0 19.5022V9.27267C0.000224482 6.26312 2.44058 3.82346 5.4502 3.82346H39.9053Z" fill="#D5AF9B"/>
<path d="M39.73 36.9608C39.73 46.3299 32.1348 53.925 22.7658 53.925C13.3967 53.925 5.80159 46.3299 5.80159 36.9608C5.80159 27.5918 13.3967 19.9966 22.7658 19.9966C32.1348 19.9966 39.73 27.5918 39.73 36.9608Z" fill="#D5AF9B"/>
<path d="M39.7299 36.9608C39.7299 27.5917 32.1348 19.9966 22.7658 19.9966C13.3967 19.9966 5.80157 27.5917 5.80157 36.9608C5.80157 46.3299 13.3967 53.925 22.7658 53.925C32.1348 53.925 39.7299 46.3299 39.7299 36.9608ZM43.4216 36.9608C43.4216 48.3687 34.1737 57.6167 22.7658 57.6167C11.3578 57.6167 2.10988 48.3687 2.10988 36.9608C2.10988 25.5529 11.3578 16.3049 22.7658 16.3049C34.1737 16.3049 43.4216 25.5529 43.4216 36.9608Z" fill="#F4F0EE"/>
<path d="M14.6791 24.9188C5.32684 32.7241 8.6728 42.4103 11.5148 46.2778C22.3262 56.8255 28.5669 49.6179 29.8853 45.9262C30.9401 42.9729 31.2917 40.9017 26.1058 39.9492C21.7988 39.1581 11.5148 39.4218 14.6791 29.9289C17.8434 20.436 28.6255 23.8054 32.786 27.292C26.3167 19.557 18.0192 22.4869 14.6791 24.9188Z" fill="#F4F0EE"/>
<path d="M39.7298 11.0312C39.7298 13.3613 37.8409 15.2502 35.5108 15.2502C33.1806 15.2502 31.2917 13.3613 31.2917 11.0312C31.2917 8.70104 33.1806 6.8121 35.5108 6.8121C37.8409 6.8121 39.7298 8.70104 39.7298 11.0312Z" fill="#D5AF9B"/>
<path d="M37.9719 11.0312C37.9719 9.67193 36.87 8.57004 35.5108 8.57004C34.1515 8.57004 33.0496 9.67193 33.0496 11.0312C33.0496 12.3904 34.1515 13.4923 35.5108 13.4923V15.2502C33.1806 15.2502 31.2917 13.3613 31.2917 11.0312C31.2917 8.70104 33.1806 6.8121 35.5108 6.8121C37.8409 6.8121 39.7298 8.70104 39.7298 11.0312C39.7298 13.3613 37.8409 15.2502 35.5108 15.2502V13.4923C36.87 13.4923 37.9719 12.3904 37.9719 11.0312Z" fill="#F4F0EE"/>
<path d="M25.6276 33.3074C23.9718 36.2191 20.9875 37.6457 18.962 36.4938C16.9364 35.3419 16.6368 32.0478 18.2926 29.1361C19.9484 26.2244 22.9327 24.7979 24.9582 25.9497C26.9837 27.1016 27.2834 30.3958 25.6276 33.3074Z" fill="#F4F0EE"/>
<path d="M23.9084 10.5036C23.9084 9.82402 23.3575 9.27308 22.6778 9.27308C21.9982 9.27308 21.4473 9.82402 21.4473 10.5036C21.4473 11.1833 21.9982 11.7342 22.6778 11.7342V13.4921C21.0273 13.4921 19.6893 12.1541 19.6893 10.5036C19.6893 8.85313 21.0273 7.51513 22.6778 7.51513C24.3283 7.51513 25.6663 8.85313 25.6663 10.5036C25.6663 12.1541 24.3283 13.4921 22.6778 13.4921V11.7342C23.3575 11.7342 23.9084 11.1833 23.9084 10.5036Z" fill="#F4F0EE"/>
<path d="M16.1734 8.74576C16.6588 8.74576 17.0524 9.13929 17.0524 9.62473C17.0524 10.1102 16.6588 10.5037 16.1734 10.5037H4.92252C4.43708 10.5037 4.04355 10.1102 4.04355 9.62473C4.04355 9.13929 4.43708 8.74576 4.92252 8.74576H16.1734Z" fill="#F4F0EE"/>
<path d="M16.1734 11.7343C16.6588 11.7343 17.0524 12.1278 17.0524 12.6132C17.0524 13.0987 16.6588 13.4922 16.1734 13.4922H4.92252C4.43708 13.4922 4.04355 13.0987 4.04355 12.6132C4.04355 12.1278 4.43708 11.7343 4.92252 11.7343H16.1734Z" fill="#F4F0EE"/>
<circle cx="45.5004" cy="4.97059" r="3.97059" fill="#D5AF9B" stroke="#F4F0EE" stroke-width="2"/>
</svg>
