<svg width="51" height="58" viewBox="0 0 51 58" fill="none" xmlns="http://www.w3.org/2000/svg">
<path d="M39.9053 3.82346C42.9149 3.82346 45.3552 6.26312 45.3555 9.27267V51.6311L39.9932 45.4865C38.8504 46.0141 35.8448 48.2647 32.9619 53.0461C29.3653 59.0112 17.6264 55.5212 14.3467 54.5461L14.3271 54.5403C11.0749 53.5729 3.95626 44.3443 3.95605 38.4553C3.95605 33.7442 6.41685 26.1208 7.64746 22.8977L0.0878906 19.3811C0.0581446 19.4208 0.0293689 19.4616 0 19.5022V9.27267C0.000224482 6.26312 2.44058 3.82346 5.4502 3.82346H39.9053Z" fill="#D5AF9B"/>
<path d="M39.73 36.9608C39.73 46.3299 32.1348 53.925 22.7658 53.925C13.3967 53.925 5.80159 46.3299 5.80159 36.9608C5.80159 27.5918 13.3967 19.9966 22.7658 19.9966C32.1348 19.9966 39.73 27.5918 39.73 36.9608Z" fill="#D5AF9B"/>
<path d="M39.7299 36.9608C39.7299 27.5917 32.1348 19.9966 22.7658 19.9966C13.3967 19.9966 5.80157 27.5917 5.80157 36.9608C5.80157 46.3299 13.3967 53.925 22.7658 53.925C32.1348 53.925 39.7299 46.3299 39.7299 36.9608ZM43.4216 36.9608C43.4216 48.3687 34.1737 57.6167 22.7658 57.6167C11.3578 57.6167 2.10988 48.3687 2.10988 36.9608C2.10988 25.5529 11.3578 16.3049 22.7658 16.3049C34.1737 16.3049 43.4216 25.5529 43.4216 36.9608Z" fill="#F4F0EE"/>
<path d="M14.6791 24.9188C5.32684 32.7241 8.6728 42.4103 11.5148 46.2778C22.3262 56.8255 28.5669 49.6179 29.8853 45.9262C30.9401 42.9729 31.2917 40.9017 26.1058 39.9492C21.7988 39.1581 11.5148 39.4218 14.6791 29.9289C17.8434 20.436 28.6255 23.8054 32.786 27.292C26.3167 19.557 18.0192 22.4869 14.6791 24.9188Z" fill="#F4F0EE"/>
<path d="M39.7298 11.0312C39.7298 13.3613 37.8409 15.2502 35.5108 15.2502C33.1806 15.2502 31.2917 13.3613 31.2917 11.0312C31.2917 8.70104 33.1806 6.8121 35.5108 6.8121C37.8409 6.8121 39.7298 8.70104 39.7298 11.0312Z" fill="#D5AF9B"/>
<path d="M37.9719 11.0312C37.9719 9.67193 36.87 8.57004 35.5108 8.57004C34.1515 8.57004 33.0496 9.67193 33.0496 11.0312C33.0496 12.3904 34.1515 13.4923 35.5108 13.4923V15.2502C33.1806 15.2502 31.2917 13.3613 31.2917 11.0312C31.2917 8.70104 33.1806 6.8121 35.5108 6.8121C37.8409 6.8121 39.7298 8.70104 39.7298 11.0312C39.7298 13.3613 37.8409 15.2502 35.5108 15.2502V13.4923C36.87 13.4923 37.9719 12.3904 37.9719 11.0312Z" fill="#F4F0EE"/>
<path d="M25.6276 33.3074C23.9718 36.2191 20.9875 37.6457 18.962 36.4938C16.9364 35.3419 16.6368 32.0478 18.2926 29.1361C19.9484 26.2244 22.9327 24.7979 24.9582 25.9497C26.9837 27.1016 27.2834 30.3958 25.6276 33.3074Z" fill="#F4F0EE"/>
<path d="M23.9084 10.5036C23.9084 9.82402 23.3575 9.27308 22.6778 9.27308C21.9982 9.27308 21.4473 9.82402 21.4473 10.5036C21.4473 11.1833 21.9982 11.7342 22.6778 11.7342V13.4921C21.0273 13.4921 19.6893 12.1541 19.6893 10.5036C19.6893 8.85313 21.0273 7.51513 22.6778 7.51513C24.3283 7.51513 25.6663 8.85313 25.6663 10.5036C25.6663 12.1541 24.3283 13.4921 22.6778 13.4921V11.7342C23.3575 11.7342 23.9084 11.1833 23.9084 10.5036Z" fill="#F4F0EE"/>
<path d="M16.1734 8.74576C16.6588 8.74576 17.0524 9.13929 17.0524 9.62473C17.0524 10.1102 16.6588 10.5037 16.1734 10.5037H4.92252C4.43708 10.5037 4.04355 10.1102 4.04355 9.62473C4.04355 9.13929 4.43708 8.74576 4.92252 8.74576H16.1734Z" fill="#F4F0EE"/>
<path d="M16.1734 11.7343C16.6588 11.7343 17.0524 12.1278 17.0524 12.6132C17.0524 13.0987 16.6588 13.4922 16.1734 13.4922H4.92252C4.43708 13.4922 4.04355 13.0987 4.04355 12.6132C4.04355 12.1278 4.43708 11.7343 4.92252 11.7343H16.1734Z" fill="#F4F0EE"/>
<circle cx="45.5004" cy="4.97059" r="3.97059" fill="#D5AF9B" stroke="#F4F0EE" stroke-width="2"/>
</svg>
