<svg width="20" height="21" viewBox="0 0 20 21" fill="none" xmlns="http://www.w3.org/2000/svg">
<path d="M18.4021 14.6768V17.4268C18.4031 17.682 18.3532 17.9347 18.2555 18.1687C18.1579 18.4026 18.0147 18.6125 17.8352 18.7851C17.6556 18.9577 17.4436 19.0891 17.2128 19.1709C16.9819 19.2527 16.7373 19.2831 16.4946 19.2601C13.8021 18.9536 11.2157 17.9897 8.94335 16.4459C6.8292 15.0385 5.03677 13.1607 3.69335 10.9459C2.21458 8.55453 1.29431 5.83183 1.0071 2.99842C0.985236 2.74493 1.01399 2.48945 1.09154 2.24824C1.16909 2.00704 1.29373 1.78539 1.45752 1.59741C1.62132 1.40943 1.82068 1.25924 2.04292 1.1564C2.26516 1.05356 2.5054 1.00033 2.74835 1.00009H5.37335C5.798 0.99571 6.20967 1.15324 6.53164 1.44333C6.85362 1.73341 7.06392 2.13625 7.12335 2.57676C7.23415 3.45682 7.43962 4.32092 7.73585 5.15259C7.85358 5.48069 7.87906 5.83726 7.80927 6.18006C7.73948 6.52286 7.57736 6.83752 7.3421 7.08676L6.23085 8.25092C7.47646 10.5458 9.29025 12.446 11.4809 13.7509L12.5921 12.5868C12.83 12.3403 13.1304 12.1704 13.4576 12.0973C13.7848 12.0242 14.1252 12.0509 14.4384 12.1743C15.2322 12.4846 16.057 12.6999 16.8971 12.8159C17.3221 12.8787 17.7103 13.103 17.9878 13.4461C18.2653 13.7892 18.4127 14.2272 18.4021 14.6768Z" stroke="white" stroke-width="2" stroke-linecap="round" stroke-linejoin="round"/>
</svg>
